<mxfile host="Electron" modified="2024-06-29T15:16:29.257Z" agent="Mozilla/5.0 (Windows NT 10.0; Win64; x64) AppleWebKit/537.36 (KHTML, like Gecko) draw.io/24.0.4 Chrome/120.0.6099.109 Electron/28.1.0 Safari/537.36" etag="XG1dg2xF4j6GL3tRJRfA" version="24.0.4" type="device" pages="3">
  <diagram name="Activities" id="UIfVNitclT8w5YAYvRgY">
    <mxGraphModel dx="875" dy="558" grid="1" gridSize="10" guides="1" tooltips="1" connect="1" arrows="1" fold="1" page="1" pageScale="1" pageWidth="1654" pageHeight="1169" math="0" shadow="0">
      <root>
        <mxCell id="0" />
        <mxCell id="1" parent="0" />
        <mxCell id="S3gtQ3fTsYC6B1I4pudv-4" value="CineSync: [ACT000] Create Connection" style="swimlane;childLayout=stackLayout;resizeParent=1;resizeParentMax=0;startSize=20;html=1;" vertex="1" parent="1">
          <mxGeometry x="40.000000000000455" y="80" width="360" height="320" as="geometry" />
        </mxCell>
        <mxCell id="S3gtQ3fTsYC6B1I4pudv-5" value="User" style="swimlane;startSize=20;html=1;" vertex="1" parent="S3gtQ3fTsYC6B1I4pudv-4">
          <mxGeometry y="20" width="120" height="300" as="geometry" />
        </mxCell>
        <mxCell id="S3gtQ3fTsYC6B1I4pudv-23" style="edgeStyle=orthogonalEdgeStyle;rounded=0;orthogonalLoop=1;jettySize=auto;html=1;entryX=0.5;entryY=0;entryDx=0;entryDy=0;exitX=0.549;exitY=0.776;exitDx=0;exitDy=0;exitPerimeter=0;fillColor=#e51400;strokeColor=#B20000;" edge="1" parent="S3gtQ3fTsYC6B1I4pudv-5">
          <mxGeometry relative="1" as="geometry">
            <mxPoint x="60.09000000000002" y="45.52000000000001" as="sourcePoint" />
            <mxPoint x="59.94" y="70" as="targetPoint" />
          </mxGeometry>
        </mxCell>
        <mxCell id="S3gtQ3fTsYC6B1I4pudv-8" value="" style="ellipse;html=1;shape=startState;fillColor=#000000;strokeColor=#ff0000;" vertex="1" parent="S3gtQ3fTsYC6B1I4pudv-5">
          <mxGeometry x="50" y="30" width="20" height="20" as="geometry" />
        </mxCell>
        <mxCell id="S3gtQ3fTsYC6B1I4pudv-19" style="edgeStyle=orthogonalEdgeStyle;rounded=0;orthogonalLoop=1;jettySize=auto;html=1;" edge="1" parent="S3gtQ3fTsYC6B1I4pudv-5" source="S3gtQ3fTsYC6B1I4pudv-11">
          <mxGeometry relative="1" as="geometry">
            <mxPoint x="19.999999999999545" y="150" as="targetPoint" />
            <Array as="points">
              <mxPoint x="10" y="80" />
              <mxPoint x="10" y="150" />
            </Array>
          </mxGeometry>
        </mxCell>
        <mxCell id="S3gtQ3fTsYC6B1I4pudv-11" value="&lt;font size=&quot;1&quot; style=&quot;&quot;&gt;&lt;b style=&quot;font-size: 6px;&quot;&gt;Create Connection&lt;/b&gt;&lt;/font&gt;" style="rounded=1;whiteSpace=wrap;html=1;" vertex="1" parent="S3gtQ3fTsYC6B1I4pudv-5">
          <mxGeometry x="30" y="70" width="65" height="20" as="geometry" />
        </mxCell>
        <mxCell id="S3gtQ3fTsYC6B1I4pudv-20" style="edgeStyle=orthogonalEdgeStyle;rounded=0;orthogonalLoop=1;jettySize=auto;html=1;startArrow=classic;startFill=1;endArrow=none;endFill=0;" edge="1" parent="S3gtQ3fTsYC6B1I4pudv-5" source="S3gtQ3fTsYC6B1I4pudv-12">
          <mxGeometry relative="1" as="geometry">
            <mxPoint x="19.999999999999545" y="140" as="targetPoint" />
          </mxGeometry>
        </mxCell>
        <mxCell id="S3gtQ3fTsYC6B1I4pudv-49" style="edgeStyle=orthogonalEdgeStyle;rounded=0;orthogonalLoop=1;jettySize=auto;html=1;" edge="1" parent="S3gtQ3fTsYC6B1I4pudv-5" source="S3gtQ3fTsYC6B1I4pudv-12">
          <mxGeometry relative="1" as="geometry">
            <mxPoint x="129.99999999999955" y="130" as="targetPoint" />
          </mxGeometry>
        </mxCell>
        <mxCell id="S3gtQ3fTsYC6B1I4pudv-12" value="&lt;font size=&quot;1&quot; style=&quot;&quot;&gt;&lt;b style=&quot;font-size: 6px;&quot;&gt;URL&lt;/b&gt;&lt;/font&gt;" style="rounded=1;whiteSpace=wrap;html=1;" vertex="1" parent="S3gtQ3fTsYC6B1I4pudv-5">
          <mxGeometry x="40" y="110" width="52.5" height="20" as="geometry" />
        </mxCell>
        <mxCell id="S3gtQ3fTsYC6B1I4pudv-21" style="edgeStyle=orthogonalEdgeStyle;rounded=0;orthogonalLoop=1;jettySize=auto;html=1;startArrow=classic;startFill=1;endArrow=none;endFill=0;" edge="1" parent="S3gtQ3fTsYC6B1I4pudv-5" source="S3gtQ3fTsYC6B1I4pudv-13">
          <mxGeometry relative="1" as="geometry">
            <mxPoint x="19.999999999999545" y="150" as="targetPoint" />
            <Array as="points">
              <mxPoint x="20" y="150" />
              <mxPoint x="20" y="150" />
            </Array>
          </mxGeometry>
        </mxCell>
        <mxCell id="S3gtQ3fTsYC6B1I4pudv-50" style="edgeStyle=orthogonalEdgeStyle;rounded=0;orthogonalLoop=1;jettySize=auto;html=1;" edge="1" parent="S3gtQ3fTsYC6B1I4pudv-5" source="S3gtQ3fTsYC6B1I4pudv-13">
          <mxGeometry relative="1" as="geometry">
            <mxPoint x="129.99999999999955" y="150" as="targetPoint" />
          </mxGeometry>
        </mxCell>
        <mxCell id="S3gtQ3fTsYC6B1I4pudv-13" value="&lt;font size=&quot;1&quot; style=&quot;&quot;&gt;&lt;b style=&quot;font-size: 6px;&quot;&gt;Username&lt;/b&gt;&lt;/font&gt;" style="rounded=1;whiteSpace=wrap;html=1;" vertex="1" parent="S3gtQ3fTsYC6B1I4pudv-5">
          <mxGeometry x="38.75" y="140" width="52.5" height="20" as="geometry" />
        </mxCell>
        <mxCell id="S3gtQ3fTsYC6B1I4pudv-22" style="edgeStyle=orthogonalEdgeStyle;rounded=0;orthogonalLoop=1;jettySize=auto;html=1;startArrow=classic;startFill=1;endArrow=none;endFill=0;" edge="1" parent="S3gtQ3fTsYC6B1I4pudv-5" source="S3gtQ3fTsYC6B1I4pudv-14">
          <mxGeometry relative="1" as="geometry">
            <mxPoint x="19.999999999999545" y="180" as="targetPoint" />
            <Array as="points">
              <mxPoint x="20" y="180" />
              <mxPoint x="20" y="180" />
            </Array>
          </mxGeometry>
        </mxCell>
        <mxCell id="S3gtQ3fTsYC6B1I4pudv-51" style="edgeStyle=orthogonalEdgeStyle;rounded=0;orthogonalLoop=1;jettySize=auto;html=1;" edge="1" parent="S3gtQ3fTsYC6B1I4pudv-5" source="S3gtQ3fTsYC6B1I4pudv-14">
          <mxGeometry relative="1" as="geometry">
            <mxPoint x="129.99999999999955" y="170" as="targetPoint" />
          </mxGeometry>
        </mxCell>
        <mxCell id="S3gtQ3fTsYC6B1I4pudv-14" value="&lt;font size=&quot;1&quot; style=&quot;&quot;&gt;&lt;b style=&quot;font-size: 6px;&quot;&gt;Password&lt;/b&gt;&lt;/font&gt;" style="rounded=1;whiteSpace=wrap;html=1;" vertex="1" parent="S3gtQ3fTsYC6B1I4pudv-5">
          <mxGeometry x="37.5" y="170" width="55" height="20" as="geometry" />
        </mxCell>
        <mxCell id="S3gtQ3fTsYC6B1I4pudv-17" value="" style="endArrow=none;html=1;rounded=0;fillColor=#0050ef;strokeColor=#001DBC;" edge="1" parent="S3gtQ3fTsYC6B1I4pudv-5">
          <mxGeometry width="50" height="50" relative="1" as="geometry">
            <mxPoint x="19.999999999999545" y="180" as="sourcePoint" />
            <mxPoint x="19.999999999999545" y="120" as="targetPoint" />
          </mxGeometry>
        </mxCell>
        <mxCell id="S3gtQ3fTsYC6B1I4pudv-36" value="" style="ellipse;html=1;shape=endState;fillColor=#000000;strokeColor=#ff0000;" vertex="1" parent="S3gtQ3fTsYC6B1I4pudv-5">
          <mxGeometry x="50" y="240" width="18.75" height="20" as="geometry" />
        </mxCell>
        <mxCell id="S3gtQ3fTsYC6B1I4pudv-6" value="App.java" style="swimlane;startSize=20;html=1;" vertex="1" parent="S3gtQ3fTsYC6B1I4pudv-4">
          <mxGeometry x="120" y="20" width="120" height="300" as="geometry" />
        </mxCell>
        <mxCell id="S3gtQ3fTsYC6B1I4pudv-52" style="edgeStyle=orthogonalEdgeStyle;rounded=0;orthogonalLoop=1;jettySize=auto;html=1;endArrow=none;endFill=0;startArrow=classic;startFill=1;" edge="1" parent="S3gtQ3fTsYC6B1I4pudv-6" source="S3gtQ3fTsYC6B1I4pudv-24">
          <mxGeometry relative="1" as="geometry">
            <mxPoint x="19.999999999999545" y="150" as="targetPoint" />
          </mxGeometry>
        </mxCell>
        <mxCell id="S3gtQ3fTsYC6B1I4pudv-24" value="&lt;font size=&quot;1&quot; style=&quot;&quot;&gt;&lt;b style=&quot;font-size: 6px;&quot;&gt;Get info&lt;/b&gt;&lt;/font&gt;" style="rounded=1;whiteSpace=wrap;html=1;" vertex="1" parent="S3gtQ3fTsYC6B1I4pudv-6">
          <mxGeometry x="30" y="140" width="52.5" height="20" as="geometry" />
        </mxCell>
        <mxCell id="S3gtQ3fTsYC6B1I4pudv-41" style="edgeStyle=orthogonalEdgeStyle;rounded=0;orthogonalLoop=1;jettySize=auto;html=1;entryX=0.5;entryY=0;entryDx=0;entryDy=0;" edge="1" parent="S3gtQ3fTsYC6B1I4pudv-6" source="S3gtQ3fTsYC6B1I4pudv-34" target="S3gtQ3fTsYC6B1I4pudv-35">
          <mxGeometry relative="1" as="geometry" />
        </mxCell>
        <mxCell id="S3gtQ3fTsYC6B1I4pudv-34" value="&lt;span style=&quot;font-size: 6px;&quot;&gt;&lt;b&gt;Display info&lt;/b&gt;&lt;/span&gt;" style="rounded=1;whiteSpace=wrap;html=1;" vertex="1" parent="S3gtQ3fTsYC6B1I4pudv-6">
          <mxGeometry x="33.75" y="200" width="52.5" height="20" as="geometry" />
        </mxCell>
        <mxCell id="S3gtQ3fTsYC6B1I4pudv-37" style="edgeStyle=orthogonalEdgeStyle;rounded=0;orthogonalLoop=1;jettySize=auto;html=1;" edge="1" parent="S3gtQ3fTsYC6B1I4pudv-6" source="S3gtQ3fTsYC6B1I4pudv-35">
          <mxGeometry relative="1" as="geometry">
            <mxPoint x="-50.000000000000455" y="250" as="targetPoint" />
          </mxGeometry>
        </mxCell>
        <mxCell id="S3gtQ3fTsYC6B1I4pudv-35" value="&lt;span style=&quot;font-size: 6px;&quot;&gt;&lt;b&gt;Enable Pages&lt;/b&gt;&lt;/span&gt;" style="rounded=1;whiteSpace=wrap;html=1;" vertex="1" parent="S3gtQ3fTsYC6B1I4pudv-6">
          <mxGeometry x="33.75" y="240" width="52.5" height="20" as="geometry" />
        </mxCell>
        <mxCell id="S3gtQ3fTsYC6B1I4pudv-18" value="" style="endArrow=none;html=1;rounded=0;fillColor=#0050ef;strokeColor=#001DBC;" edge="1" parent="S3gtQ3fTsYC6B1I4pudv-6">
          <mxGeometry width="50" height="50" relative="1" as="geometry">
            <mxPoint x="9.999999999999545" y="180" as="sourcePoint" />
            <mxPoint x="9.999999999999545" y="120" as="targetPoint" />
          </mxGeometry>
        </mxCell>
        <mxCell id="S3gtQ3fTsYC6B1I4pudv-7" value="SqlDb.java" style="swimlane;startSize=20;html=1;" vertex="1" parent="S3gtQ3fTsYC6B1I4pudv-4">
          <mxGeometry x="240" y="20" width="120" height="300" as="geometry">
            <mxRectangle x="240" y="20" width="40" height="280" as="alternateBounds" />
          </mxGeometry>
        </mxCell>
        <mxCell id="S3gtQ3fTsYC6B1I4pudv-25" value="&lt;font size=&quot;1&quot; style=&quot;&quot;&gt;&lt;b style=&quot;font-size: 6px;&quot;&gt;Connect&lt;/b&gt;&lt;/font&gt;" style="rounded=1;whiteSpace=wrap;html=1;" vertex="1" parent="S3gtQ3fTsYC6B1I4pudv-7">
          <mxGeometry x="33.75" y="140" width="52.5" height="20" as="geometry" />
        </mxCell>
        <mxCell id="S3gtQ3fTsYC6B1I4pudv-39" style="edgeStyle=orthogonalEdgeStyle;rounded=0;orthogonalLoop=1;jettySize=auto;html=1;" edge="1" parent="S3gtQ3fTsYC6B1I4pudv-4" source="S3gtQ3fTsYC6B1I4pudv-24" target="S3gtQ3fTsYC6B1I4pudv-25">
          <mxGeometry relative="1" as="geometry" />
        </mxCell>
        <mxCell id="S3gtQ3fTsYC6B1I4pudv-40" style="edgeStyle=orthogonalEdgeStyle;rounded=0;orthogonalLoop=1;jettySize=auto;html=1;entryX=1;entryY=0.5;entryDx=0;entryDy=0;" edge="1" parent="S3gtQ3fTsYC6B1I4pudv-4" source="S3gtQ3fTsYC6B1I4pudv-25" target="S3gtQ3fTsYC6B1I4pudv-34">
          <mxGeometry relative="1" as="geometry">
            <Array as="points">
              <mxPoint x="300" y="230" />
            </Array>
          </mxGeometry>
        </mxCell>
        <mxCell id="S3gtQ3fTsYC6B1I4pudv-53" value="&lt;b&gt;&lt;font face=&quot;Helvetica&quot; style=&quot;font-size: 23px;&quot;&gt;CineSync | Activities&lt;/font&gt;&lt;/b&gt;" style="text;html=1;align=center;verticalAlign=middle;resizable=0;points=[];autosize=1;strokeColor=#10739e;fillColor=#b1ddf0;" vertex="1" parent="1">
          <mxGeometry x="702" width="250" height="40" as="geometry" />
        </mxCell>
        <mxCell id="S3gtQ3fTsYC6B1I4pudv-54" value="date&lt;div&gt;SHow(select)&lt;/div&gt;&lt;div&gt;episode&lt;/div&gt;&lt;div&gt;code(derived)&lt;/div&gt;&lt;div&gt;presenter/s&lt;/div&gt;&lt;div&gt;guest/s&lt;/div&gt;&lt;div&gt;Technician&lt;/div&gt;&lt;div&gt;Synopsis&lt;/div&gt;&lt;div&gt;Status&lt;/div&gt;&lt;div&gt;&lt;br&gt;&lt;/div&gt;" style="text;html=1;align=center;verticalAlign=middle;resizable=0;points=[];autosize=1;strokeColor=none;fillColor=none;" vertex="1" parent="1">
          <mxGeometry x="1490" y="120" width="100" height="160" as="geometry" />
        </mxCell>
        <mxCell id="S3gtQ3fTsYC6B1I4pudv-55" value="CineSync: [ACT001] Create Series" style="swimlane;childLayout=stackLayout;resizeParent=1;resizeParentMax=0;startSize=20;html=1;" vertex="1" parent="1">
          <mxGeometry x="480.00000000000045" y="80" width="480" height="320" as="geometry" />
        </mxCell>
        <mxCell id="S3gtQ3fTsYC6B1I4pudv-56" value="Producer" style="swimlane;startSize=20;html=1;" vertex="1" parent="S3gtQ3fTsYC6B1I4pudv-55">
          <mxGeometry y="20" width="120" height="300" as="geometry" />
        </mxCell>
        <mxCell id="S3gtQ3fTsYC6B1I4pudv-59" value="" style="ellipse;html=1;shape=startState;fillColor=#000000;strokeColor=#ff0000;" vertex="1" parent="S3gtQ3fTsYC6B1I4pudv-56">
          <mxGeometry x="50" y="30" width="20" height="20" as="geometry" />
        </mxCell>
        <mxCell id="S3gtQ3fTsYC6B1I4pudv-60" style="edgeStyle=orthogonalEdgeStyle;rounded=0;orthogonalLoop=1;jettySize=auto;html=1;entryX=0.5;entryY=0;entryDx=0;entryDy=0;fillColor=#e51400;strokeColor=#ea3322;exitX=0.508;exitY=0.795;exitDx=0;exitDy=0;exitPerimeter=0;" edge="1" parent="S3gtQ3fTsYC6B1I4pudv-56" source="S3gtQ3fTsYC6B1I4pudv-59" target="S3gtQ3fTsYC6B1I4pudv-61">
          <mxGeometry relative="1" as="geometry">
            <mxPoint x="59.999999999999545" y="50" as="sourcePoint" />
            <mxPoint x="59.9" y="64.48000000000002" as="targetPoint" />
          </mxGeometry>
        </mxCell>
        <mxCell id="S3gtQ3fTsYC6B1I4pudv-68" style="edgeStyle=orthogonalEdgeStyle;rounded=0;orthogonalLoop=1;jettySize=auto;html=1;entryX=0.5;entryY=0;entryDx=0;entryDy=0;" edge="1" parent="S3gtQ3fTsYC6B1I4pudv-56" source="S3gtQ3fTsYC6B1I4pudv-61" target="S3gtQ3fTsYC6B1I4pudv-62">
          <mxGeometry relative="1" as="geometry" />
        </mxCell>
        <mxCell id="S3gtQ3fTsYC6B1I4pudv-61" value="&lt;font size=&quot;1&quot; style=&quot;&quot;&gt;&lt;b style=&quot;font-size: 6px;&quot;&gt;Create Series&lt;/b&gt;&lt;/font&gt;" style="rounded=1;whiteSpace=wrap;html=1;" vertex="1" parent="S3gtQ3fTsYC6B1I4pudv-56">
          <mxGeometry x="27.5" y="70" width="65" height="20" as="geometry" />
        </mxCell>
        <mxCell id="S3gtQ3fTsYC6B1I4pudv-62" value="&lt;font size=&quot;1&quot; style=&quot;&quot;&gt;&lt;b style=&quot;font-size: 6px;&quot;&gt;Enter details&lt;/b&gt;&lt;/font&gt;" style="rounded=1;whiteSpace=wrap;html=1;" vertex="1" parent="S3gtQ3fTsYC6B1I4pudv-56">
          <mxGeometry x="27.5" y="120" width="65" height="20" as="geometry" />
        </mxCell>
        <mxCell id="S3gtQ3fTsYC6B1I4pudv-66" value="&lt;font size=&quot;1&quot; style=&quot;&quot;&gt;&lt;b style=&quot;font-size: 6px;&quot;&gt;Success&lt;/b&gt;&lt;/font&gt;" style="rounded=1;whiteSpace=wrap;html=1;" vertex="1" parent="S3gtQ3fTsYC6B1I4pudv-56">
          <mxGeometry x="27.5" y="200" width="65" height="20" as="geometry" />
        </mxCell>
        <mxCell id="S3gtQ3fTsYC6B1I4pudv-67" value="" style="ellipse;html=1;shape=endState;fillColor=#000000;strokeColor=#ff0000;" vertex="1" parent="S3gtQ3fTsYC6B1I4pudv-56">
          <mxGeometry x="51.25" y="240" width="18.75" height="20" as="geometry" />
        </mxCell>
        <mxCell id="S3gtQ3fTsYC6B1I4pudv-73" style="edgeStyle=orthogonalEdgeStyle;rounded=0;orthogonalLoop=1;jettySize=auto;html=1;entryX=0.467;entryY=-0.197;entryDx=0;entryDy=0;entryPerimeter=0;fillColor=#e51400;strokeColor=#B20000;" edge="1" parent="S3gtQ3fTsYC6B1I4pudv-56" source="S3gtQ3fTsYC6B1I4pudv-66" target="S3gtQ3fTsYC6B1I4pudv-67">
          <mxGeometry relative="1" as="geometry" />
        </mxCell>
        <mxCell id="S3gtQ3fTsYC6B1I4pudv-57" value="App.java" style="swimlane;startSize=20;html=1;" vertex="1" parent="S3gtQ3fTsYC6B1I4pudv-55">
          <mxGeometry x="120" y="20" width="120" height="300" as="geometry" />
        </mxCell>
        <mxCell id="S3gtQ3fTsYC6B1I4pudv-63" value="&lt;font size=&quot;1&quot; style=&quot;&quot;&gt;&lt;b style=&quot;font-size: 6px;&quot;&gt;Fetch Details&lt;/b&gt;&lt;/font&gt;" style="rounded=1;whiteSpace=wrap;html=1;" vertex="1" parent="S3gtQ3fTsYC6B1I4pudv-57">
          <mxGeometry x="27.5" y="120" width="65" height="20" as="geometry" />
        </mxCell>
        <mxCell id="S3gtQ3fTsYC6B1I4pudv-96" value="Series" style="swimlane;startSize=20;" vertex="1" parent="S3gtQ3fTsYC6B1I4pudv-55">
          <mxGeometry x="240" y="20" width="120" height="300" as="geometry" />
        </mxCell>
        <mxCell id="S3gtQ3fTsYC6B1I4pudv-101" style="edgeStyle=orthogonalEdgeStyle;rounded=0;orthogonalLoop=1;jettySize=auto;html=1;entryX=0.5;entryY=0;entryDx=0;entryDy=0;" edge="1" parent="S3gtQ3fTsYC6B1I4pudv-96" source="S3gtQ3fTsYC6B1I4pudv-64" target="S3gtQ3fTsYC6B1I4pudv-99">
          <mxGeometry relative="1" as="geometry" />
        </mxCell>
        <mxCell id="S3gtQ3fTsYC6B1I4pudv-64" value="&lt;span style=&quot;font-size: 6px;&quot;&gt;&lt;b&gt;New Series&lt;/b&gt;&lt;/span&gt;" style="rounded=1;whiteSpace=wrap;html=1;" vertex="1" parent="S3gtQ3fTsYC6B1I4pudv-96">
          <mxGeometry x="27.5" y="120" width="65" height="20" as="geometry" />
        </mxCell>
        <mxCell id="S3gtQ3fTsYC6B1I4pudv-99" value="&lt;span style=&quot;font-size: 6px;&quot;&gt;&lt;b&gt;Generate Code&lt;/b&gt;&lt;/span&gt;" style="rounded=1;whiteSpace=wrap;html=1;" vertex="1" parent="S3gtQ3fTsYC6B1I4pudv-96">
          <mxGeometry x="27.5" y="170" width="65" height="20" as="geometry" />
        </mxCell>
        <mxCell id="S3gtQ3fTsYC6B1I4pudv-58" value="SqlDb.java" style="swimlane;startSize=20;html=1;" vertex="1" parent="S3gtQ3fTsYC6B1I4pudv-55">
          <mxGeometry x="360" y="20" width="120" height="300" as="geometry" />
        </mxCell>
        <mxCell id="S3gtQ3fTsYC6B1I4pudv-65" value="&lt;font size=&quot;1&quot; style=&quot;&quot;&gt;&lt;b style=&quot;font-size: 6px;&quot;&gt;Commit update&lt;/b&gt;&lt;/font&gt;" style="rounded=1;whiteSpace=wrap;html=1;" vertex="1" parent="S3gtQ3fTsYC6B1I4pudv-58">
          <mxGeometry x="40" y="170" width="65" height="20" as="geometry" />
        </mxCell>
        <mxCell id="S3gtQ3fTsYC6B1I4pudv-69" style="edgeStyle=orthogonalEdgeStyle;rounded=0;orthogonalLoop=1;jettySize=auto;html=1;entryX=0;entryY=0.5;entryDx=0;entryDy=0;" edge="1" parent="S3gtQ3fTsYC6B1I4pudv-55" source="S3gtQ3fTsYC6B1I4pudv-62" target="S3gtQ3fTsYC6B1I4pudv-63">
          <mxGeometry relative="1" as="geometry" />
        </mxCell>
        <mxCell id="S3gtQ3fTsYC6B1I4pudv-100" style="edgeStyle=orthogonalEdgeStyle;rounded=0;orthogonalLoop=1;jettySize=auto;html=1;entryX=0;entryY=0.5;entryDx=0;entryDy=0;" edge="1" parent="S3gtQ3fTsYC6B1I4pudv-55" source="S3gtQ3fTsYC6B1I4pudv-63" target="S3gtQ3fTsYC6B1I4pudv-64">
          <mxGeometry relative="1" as="geometry" />
        </mxCell>
        <mxCell id="S3gtQ3fTsYC6B1I4pudv-102" style="edgeStyle=orthogonalEdgeStyle;rounded=0;orthogonalLoop=1;jettySize=auto;html=1;entryX=0;entryY=0.5;entryDx=0;entryDy=0;" edge="1" parent="S3gtQ3fTsYC6B1I4pudv-55" source="S3gtQ3fTsYC6B1I4pudv-99" target="S3gtQ3fTsYC6B1I4pudv-65">
          <mxGeometry relative="1" as="geometry" />
        </mxCell>
        <mxCell id="S3gtQ3fTsYC6B1I4pudv-103" style="edgeStyle=orthogonalEdgeStyle;rounded=0;orthogonalLoop=1;jettySize=auto;html=1;entryX=1;entryY=0.5;entryDx=0;entryDy=0;" edge="1" parent="S3gtQ3fTsYC6B1I4pudv-55" source="S3gtQ3fTsYC6B1I4pudv-65" target="S3gtQ3fTsYC6B1I4pudv-66">
          <mxGeometry relative="1" as="geometry">
            <Array as="points">
              <mxPoint x="432" y="230" />
            </Array>
          </mxGeometry>
        </mxCell>
        <mxCell id="S3gtQ3fTsYC6B1I4pudv-104" value="CineSync: [ACT002] Create Episode" style="swimlane;childLayout=stackLayout;resizeParent=1;resizeParentMax=0;startSize=20;html=1;" vertex="1" parent="1">
          <mxGeometry x="160.00000000000045" y="440" width="480" height="320" as="geometry" />
        </mxCell>
        <mxCell id="S3gtQ3fTsYC6B1I4pudv-105" value="User" style="swimlane;startSize=20;html=1;" vertex="1" parent="S3gtQ3fTsYC6B1I4pudv-104">
          <mxGeometry y="20" width="120" height="300" as="geometry" />
        </mxCell>
        <mxCell id="S3gtQ3fTsYC6B1I4pudv-106" value="" style="ellipse;html=1;shape=startState;fillColor=#000000;strokeColor=#ff0000;" vertex="1" parent="S3gtQ3fTsYC6B1I4pudv-105">
          <mxGeometry x="50" y="30" width="20" height="20" as="geometry" />
        </mxCell>
        <mxCell id="S3gtQ3fTsYC6B1I4pudv-107" style="edgeStyle=orthogonalEdgeStyle;rounded=0;orthogonalLoop=1;jettySize=auto;html=1;entryX=0.5;entryY=0;entryDx=0;entryDy=0;fillColor=#e51400;strokeColor=#ea3322;exitX=0.508;exitY=0.795;exitDx=0;exitDy=0;exitPerimeter=0;" edge="1" parent="S3gtQ3fTsYC6B1I4pudv-105" source="S3gtQ3fTsYC6B1I4pudv-106" target="S3gtQ3fTsYC6B1I4pudv-109">
          <mxGeometry relative="1" as="geometry">
            <mxPoint x="59.999999999999545" y="50" as="sourcePoint" />
            <mxPoint x="59.9" y="64.48000000000002" as="targetPoint" />
          </mxGeometry>
        </mxCell>
        <mxCell id="S3gtQ3fTsYC6B1I4pudv-108" style="edgeStyle=orthogonalEdgeStyle;rounded=0;orthogonalLoop=1;jettySize=auto;html=1;entryX=0.5;entryY=0;entryDx=0;entryDy=0;" edge="1" parent="S3gtQ3fTsYC6B1I4pudv-105" source="S3gtQ3fTsYC6B1I4pudv-109" target="S3gtQ3fTsYC6B1I4pudv-110">
          <mxGeometry relative="1" as="geometry" />
        </mxCell>
        <mxCell id="S3gtQ3fTsYC6B1I4pudv-109" value="&lt;font size=&quot;1&quot; style=&quot;&quot;&gt;&lt;b style=&quot;font-size: 6px;&quot;&gt;Create Series&lt;/b&gt;&lt;/font&gt;" style="rounded=1;whiteSpace=wrap;html=1;" vertex="1" parent="S3gtQ3fTsYC6B1I4pudv-105">
          <mxGeometry x="27.5" y="70" width="65" height="20" as="geometry" />
        </mxCell>
        <mxCell id="S3gtQ3fTsYC6B1I4pudv-110" value="&lt;font size=&quot;1&quot; style=&quot;&quot;&gt;&lt;b style=&quot;font-size: 6px;&quot;&gt;Enter details&lt;/b&gt;&lt;/font&gt;" style="rounded=1;whiteSpace=wrap;html=1;" vertex="1" parent="S3gtQ3fTsYC6B1I4pudv-105">
          <mxGeometry x="27.5" y="120" width="65" height="20" as="geometry" />
        </mxCell>
        <mxCell id="S3gtQ3fTsYC6B1I4pudv-111" value="&lt;font size=&quot;1&quot; style=&quot;&quot;&gt;&lt;b style=&quot;font-size: 6px;&quot;&gt;Success&lt;/b&gt;&lt;/font&gt;" style="rounded=1;whiteSpace=wrap;html=1;" vertex="1" parent="S3gtQ3fTsYC6B1I4pudv-105">
          <mxGeometry x="27.5" y="200" width="65" height="20" as="geometry" />
        </mxCell>
        <mxCell id="S3gtQ3fTsYC6B1I4pudv-112" value="" style="ellipse;html=1;shape=endState;fillColor=#000000;strokeColor=#ff0000;" vertex="1" parent="S3gtQ3fTsYC6B1I4pudv-105">
          <mxGeometry x="51.25" y="240" width="18.75" height="20" as="geometry" />
        </mxCell>
        <mxCell id="S3gtQ3fTsYC6B1I4pudv-113" style="edgeStyle=orthogonalEdgeStyle;rounded=0;orthogonalLoop=1;jettySize=auto;html=1;entryX=0.467;entryY=-0.197;entryDx=0;entryDy=0;entryPerimeter=0;fillColor=#e51400;strokeColor=#B20000;" edge="1" parent="S3gtQ3fTsYC6B1I4pudv-105" source="S3gtQ3fTsYC6B1I4pudv-111" target="S3gtQ3fTsYC6B1I4pudv-112">
          <mxGeometry relative="1" as="geometry" />
        </mxCell>
        <mxCell id="S3gtQ3fTsYC6B1I4pudv-114" value="App.java" style="swimlane;startSize=20;html=1;" vertex="1" parent="S3gtQ3fTsYC6B1I4pudv-104">
          <mxGeometry x="120" y="20" width="120" height="300" as="geometry" />
        </mxCell>
        <mxCell id="S3gtQ3fTsYC6B1I4pudv-115" value="&lt;font size=&quot;1&quot; style=&quot;&quot;&gt;&lt;b style=&quot;font-size: 6px;&quot;&gt;Fetch Details&lt;/b&gt;&lt;/font&gt;" style="rounded=1;whiteSpace=wrap;html=1;" vertex="1" parent="S3gtQ3fTsYC6B1I4pudv-114">
          <mxGeometry x="27.5" y="120" width="65" height="20" as="geometry" />
        </mxCell>
        <mxCell id="S3gtQ3fTsYC6B1I4pudv-116" value="Episode" style="swimlane;startSize=20;" vertex="1" parent="S3gtQ3fTsYC6B1I4pudv-104">
          <mxGeometry x="240" y="20" width="120" height="300" as="geometry" />
        </mxCell>
        <mxCell id="S3gtQ3fTsYC6B1I4pudv-118" value="&lt;span style=&quot;font-size: 6px;&quot;&gt;&lt;b&gt;New Episode&lt;/b&gt;&lt;/span&gt;" style="rounded=1;whiteSpace=wrap;html=1;" vertex="1" parent="S3gtQ3fTsYC6B1I4pudv-116">
          <mxGeometry x="27.5" y="120" width="65" height="20" as="geometry" />
        </mxCell>
        <mxCell id="S3gtQ3fTsYC6B1I4pudv-120" value="SqlDb.java" style="swimlane;startSize=20;html=1;" vertex="1" parent="S3gtQ3fTsYC6B1I4pudv-104">
          <mxGeometry x="360" y="20" width="120" height="300" as="geometry" />
        </mxCell>
        <mxCell id="S3gtQ3fTsYC6B1I4pudv-121" value="&lt;font size=&quot;1&quot; style=&quot;&quot;&gt;&lt;b style=&quot;font-size: 6px;&quot;&gt;Commit update&lt;/b&gt;&lt;/font&gt;" style="rounded=1;whiteSpace=wrap;html=1;" vertex="1" parent="S3gtQ3fTsYC6B1I4pudv-120">
          <mxGeometry x="40" y="170" width="65" height="20" as="geometry" />
        </mxCell>
        <mxCell id="S3gtQ3fTsYC6B1I4pudv-119" value="&lt;span style=&quot;font-size: 6px;&quot;&gt;&lt;b&gt;Generate Code&lt;/b&gt;&lt;/span&gt;" style="rounded=1;whiteSpace=wrap;html=1;" vertex="1" parent="S3gtQ3fTsYC6B1I4pudv-120">
          <mxGeometry x="40" y="125" width="65" height="20" as="geometry" />
        </mxCell>
        <mxCell id="S3gtQ3fTsYC6B1I4pudv-124" style="edgeStyle=orthogonalEdgeStyle;rounded=0;orthogonalLoop=1;jettySize=auto;html=1;entryX=0;entryY=0.5;entryDx=0;entryDy=0;" edge="1" parent="S3gtQ3fTsYC6B1I4pudv-120" source="S3gtQ3fTsYC6B1I4pudv-119" target="S3gtQ3fTsYC6B1I4pudv-121">
          <mxGeometry relative="1" as="geometry" />
        </mxCell>
        <mxCell id="S3gtQ3fTsYC6B1I4pudv-122" style="edgeStyle=orthogonalEdgeStyle;rounded=0;orthogonalLoop=1;jettySize=auto;html=1;entryX=0;entryY=0.5;entryDx=0;entryDy=0;" edge="1" parent="S3gtQ3fTsYC6B1I4pudv-104" source="S3gtQ3fTsYC6B1I4pudv-110" target="S3gtQ3fTsYC6B1I4pudv-115">
          <mxGeometry relative="1" as="geometry" />
        </mxCell>
        <mxCell id="S3gtQ3fTsYC6B1I4pudv-123" style="edgeStyle=orthogonalEdgeStyle;rounded=0;orthogonalLoop=1;jettySize=auto;html=1;entryX=0;entryY=0.5;entryDx=0;entryDy=0;" edge="1" parent="S3gtQ3fTsYC6B1I4pudv-104" source="S3gtQ3fTsYC6B1I4pudv-115" target="S3gtQ3fTsYC6B1I4pudv-118">
          <mxGeometry relative="1" as="geometry" />
        </mxCell>
        <mxCell id="S3gtQ3fTsYC6B1I4pudv-125" style="edgeStyle=orthogonalEdgeStyle;rounded=0;orthogonalLoop=1;jettySize=auto;html=1;entryX=1;entryY=0.5;entryDx=0;entryDy=0;" edge="1" parent="S3gtQ3fTsYC6B1I4pudv-104" source="S3gtQ3fTsYC6B1I4pudv-121" target="S3gtQ3fTsYC6B1I4pudv-111">
          <mxGeometry relative="1" as="geometry">
            <Array as="points">
              <mxPoint x="432" y="230" />
            </Array>
          </mxGeometry>
        </mxCell>
        <mxCell id="S3gtQ3fTsYC6B1I4pudv-117" style="edgeStyle=orthogonalEdgeStyle;rounded=0;orthogonalLoop=1;jettySize=auto;html=1;entryX=0.5;entryY=0;entryDx=0;entryDy=0;" edge="1" parent="S3gtQ3fTsYC6B1I4pudv-104" source="S3gtQ3fTsYC6B1I4pudv-118" target="S3gtQ3fTsYC6B1I4pudv-119">
          <mxGeometry relative="1" as="geometry" />
        </mxCell>
      </root>
    </mxGraphModel>
  </diagram>
  <diagram id="u5wpU3WrpJctOiEX7_9g" name="ClassDiagram">
    <mxGraphModel dx="724" dy="461" grid="1" gridSize="10" guides="1" tooltips="1" connect="1" arrows="1" fold="1" page="1" pageScale="1" pageWidth="1654" pageHeight="1169" math="0" shadow="0">
      <root>
        <mxCell id="0" />
        <mxCell id="1" parent="0" />
        <mxCell id="scfyNtKJM2umNOfQmT3o-1" value="&lt;b&gt;&lt;font face=&quot;Helvetica&quot; style=&quot;font-size: 23px;&quot;&gt;CineSync | ClassDiagram&lt;/font&gt;&lt;/b&gt;" style="text;html=1;align=center;verticalAlign=middle;resizable=0;points=[];autosize=1;strokeColor=#10739e;fillColor=#b1ddf0;" vertex="1" parent="1">
          <mxGeometry x="677" width="300" height="40" as="geometry" />
        </mxCell>
      </root>
    </mxGraphModel>
  </diagram>
  <diagram id="07UUgfrwNicRW2OVDNZk" name="UserInterface">
    <mxGraphModel dx="1400" dy="892" grid="1" gridSize="10" guides="1" tooltips="1" connect="1" arrows="1" fold="1" page="1" pageScale="1" pageWidth="1654" pageHeight="1169" math="0" shadow="0">
      <root>
        <mxCell id="0" />
        <mxCell id="1" parent="0" />
        <mxCell id="iUIcCY41zZb957SF8Aq1-1" value="&lt;b&gt;&lt;font face=&quot;Helvetica&quot; style=&quot;font-size: 23px;&quot;&gt;CineSync | UserInterface&lt;/font&gt;&lt;/b&gt;" style="text;html=1;align=center;verticalAlign=middle;resizable=0;points=[];autosize=1;strokeColor=#10739e;fillColor=#b1ddf0;" vertex="1" parent="1">
          <mxGeometry x="682" width="290" height="40" as="geometry" />
        </mxCell>
        <mxCell id="qfSn08KO6wEl3H6FHj9G-1" value="" style="html=1;rounded=1;fillColor=#ffffff;strokeColor=#DFE1E5;fontSize=20;align=left;fontColor=#000000;shadow=1;arcSize=1;whiteSpace=wrap;spacing=20;verticalAlign=top;fontStyle=1;sketch=1;hachureGap=4;pointerEvents=0;fontFamily=Architects Daughter;fontSource=https%3A%2F%2Ffonts.googleapis.com%2Fcss%3Ffamily%3DArchitects%2BDaughter;" vertex="1" parent="1">
          <mxGeometry x="80" y="120" width="610" height="470" as="geometry" />
        </mxCell>
        <mxCell id="qfSn08KO6wEl3H6FHj9G-2" value="&lt;font style=&quot;font-size: 17px&quot;&gt;Settings&lt;/font&gt;&lt;div&gt;&lt;br&gt;&lt;/div&gt;&lt;div&gt;&lt;font style=&quot;&quot; color=&quot;#295dd6&quot;&gt;Connection&lt;/font&gt;&lt;/div&gt;&lt;br&gt;&lt;div&gt;&lt;/div&gt;&lt;div&gt;About&lt;/div&gt;&lt;br&gt;&lt;div&gt;&lt;font color=&quot;#0057d8&quot;&gt;&lt;/font&gt;&lt;/div&gt;&lt;div&gt;&lt;br&gt;&lt;/div&gt;" style="html=1;fillColor=none;strokeColor=none;fontSize=12;align=left;fontStyle=1;strokeWidth=2;fontColor=000000;verticalAlign=top;sketch=1;hachureGap=4;pointerEvents=0;fontFamily=Helvetica;" vertex="1" parent="qfSn08KO6wEl3H6FHj9G-1">
          <mxGeometry width="110" height="360" relative="1" as="geometry">
            <mxPoint x="20" y="20" as="offset" />
          </mxGeometry>
        </mxCell>
        <mxCell id="qfSn08KO6wEl3H6FHj9G-3" value="" style="shape=line;direction=south;strokeColor=#E0E1E6;strokeWidth=1;sketch=1;hachureGap=4;pointerEvents=0;fontFamily=Architects Daughter;fontSource=https%3A%2F%2Ffonts.googleapis.com%2Fcss%3Ffamily%3DArchitects%2BDaughter;fontSize=20;" vertex="1" parent="qfSn08KO6wEl3H6FHj9G-1">
          <mxGeometry width="10" height="330" relative="1" as="geometry">
            <mxPoint x="130" y="60" as="offset" />
          </mxGeometry>
        </mxCell>
        <mxCell id="qfSn08KO6wEl3H6FHj9G-4" value="Status" style="html=1;fillColor=none;strokeColor=none;fontSize=12;align=left;fontStyle=1;fontColor=000000;sketch=1;hachureGap=4;pointerEvents=0;fontFamily=Helvetica;" vertex="1" parent="qfSn08KO6wEl3H6FHj9G-1">
          <mxGeometry width="300" height="20" relative="1" as="geometry">
            <mxPoint x="158" y="40" as="offset" />
          </mxGeometry>
        </mxCell>
        <mxCell id="qfSn08KO6wEl3H6FHj9G-30" value="" style="html=1;rounded=1;fillColor=#ffffff;strokeColor=#DFE1E5;fontSize=20;align=left;fontColor=#000000;shadow=1;arcSize=1;whiteSpace=wrap;spacing=20;verticalAlign=top;fontStyle=1;sketch=1;hachureGap=4;pointerEvents=0;fontFamily=Helvetica;" vertex="1" parent="qfSn08KO6wEl3H6FHj9G-1">
          <mxGeometry x="158.44155844155844" y="210.00285714285712" width="406.00649350649354" height="209.82142857142858" as="geometry" />
        </mxCell>
        <mxCell id="qfSn08KO6wEl3H6FHj9G-46" value="&lt;b&gt;Create Connection&lt;/b&gt;" style="text;html=1;align=left;verticalAlign=middle;resizable=0;points=[];autosize=1;strokeColor=none;fillColor=none;" vertex="1" parent="qfSn08KO6wEl3H6FHj9G-30">
          <mxGeometry x="9.902597402597404" y="5.117595818815331" width="130" height="30" as="geometry" />
        </mxCell>
        <mxCell id="qfSn08KO6wEl3H6FHj9G-54" value="" style="group" vertex="1" connectable="0" parent="qfSn08KO6wEl3H6FHj9G-30">
          <mxGeometry x="21.558441558441558" y="35.11714285714288" width="240" height="45" as="geometry" />
        </mxCell>
        <mxCell id="qfSn08KO6wEl3H6FHj9G-50" value="" style="rounded=1;arcSize=9;fillColor=#F7F8F9;align=left;spacingLeft=5;strokeColor=#DEE1E6;html=1;strokeWidth=2;fontSize=12" vertex="1" parent="qfSn08KO6wEl3H6FHj9G-54">
          <mxGeometry y="20" width="230" height="15" as="geometry" />
        </mxCell>
        <mxCell id="qfSn08KO6wEl3H6FHj9G-49" value="URL:Port:Instance" style="fillColor=none;strokeColor=none;html=1;fontSize=11;fontStyle=0;align=left;fontColor=#596780;fontStyle=1;fontSize=11" vertex="1" parent="qfSn08KO6wEl3H6FHj9G-54">
          <mxGeometry width="240" height="20" as="geometry" />
        </mxCell>
        <mxCell id="qfSn08KO6wEl3H6FHj9G-55" value="" style="group" vertex="1" connectable="0" parent="qfSn08KO6wEl3H6FHj9G-30">
          <mxGeometry x="21.558441558441558" y="95.11714285714288" width="240" height="45" as="geometry" />
        </mxCell>
        <mxCell id="qfSn08KO6wEl3H6FHj9G-56" value="" style="rounded=1;arcSize=9;fillColor=#F7F8F9;align=left;spacingLeft=5;strokeColor=#DEE1E6;html=1;strokeWidth=2;fontSize=12" vertex="1" parent="qfSn08KO6wEl3H6FHj9G-55">
          <mxGeometry y="20" width="230" height="15" as="geometry" />
        </mxCell>
        <mxCell id="qfSn08KO6wEl3H6FHj9G-57" value="Username" style="fillColor=none;strokeColor=none;html=1;fontSize=11;fontStyle=0;align=left;fontColor=#596780;fontStyle=1;fontSize=11" vertex="1" parent="qfSn08KO6wEl3H6FHj9G-55">
          <mxGeometry width="240" height="20" as="geometry" />
        </mxCell>
        <mxCell id="qfSn08KO6wEl3H6FHj9G-58" value="" style="group" vertex="1" connectable="0" parent="qfSn08KO6wEl3H6FHj9G-30">
          <mxGeometry x="21.558441558441558" y="145.11714285714288" width="240" height="45" as="geometry" />
        </mxCell>
        <mxCell id="qfSn08KO6wEl3H6FHj9G-59" value="" style="rounded=1;arcSize=9;fillColor=#F7F8F9;align=left;spacingLeft=5;strokeColor=#DEE1E6;html=1;strokeWidth=2;fontSize=12" vertex="1" parent="qfSn08KO6wEl3H6FHj9G-58">
          <mxGeometry y="20" width="230" height="15" as="geometry" />
        </mxCell>
        <mxCell id="qfSn08KO6wEl3H6FHj9G-60" value="Password" style="fillColor=none;strokeColor=none;html=1;fontSize=11;fontStyle=0;align=left;fontColor=#596780;fontStyle=1;fontSize=11" vertex="1" parent="qfSn08KO6wEl3H6FHj9G-58">
          <mxGeometry width="240" height="20" as="geometry" />
        </mxCell>
        <mxCell id="qfSn08KO6wEl3H6FHj9G-67" value="Connect" style="dashed=0;html=1;rounded=1;fillColor=#DFE1E6;strokeColor=#DFE1E6;fontSize=12;align=center;fontStyle=1;strokeWidth=2;fontColor=#42526E" vertex="1" parent="qfSn08KO6wEl3H6FHj9G-30">
          <mxGeometry x="291.56000000000006" y="160" width="88.44" height="20.12" as="geometry" />
        </mxCell>
        <mxCell id="qfSn08KO6wEl3H6FHj9G-48" value="Disconnect" style="dashed=0;html=1;rounded=1;fillColor=#BA3200;strokeColor=#BA3200;fontSize=12;align=center;fontStyle=1;strokeWidth=2;fontColor=#ffffff" vertex="1" parent="qfSn08KO6wEl3H6FHj9G-1">
          <mxGeometry x="276.44" y="180" width="170" height="20" as="geometry" />
        </mxCell>
        <mxCell id="qfSn08KO6wEl3H6FHj9G-72" value="" style="dashed=0;html=1;rounded=1;fillColor=#DFE1E6;strokeColor=#DFE1E6;fontSize=12;align=center;fontStyle=1;strokeWidth=2;fontColor=#42526E" vertex="1" parent="qfSn08KO6wEl3H6FHj9G-1">
          <mxGeometry x="160" y="60" width="404.45" height="100" as="geometry" />
        </mxCell>
        <mxCell id="qfSn08KO6wEl3H6FHj9G-73" value="Server" style="text;html=1;align=left;verticalAlign=middle;resizable=0;points=[];autosize=1;strokeColor=none;fillColor=none;" vertex="1" parent="qfSn08KO6wEl3H6FHj9G-1">
          <mxGeometry x="310" y="70" width="60" height="30" as="geometry" />
        </mxCell>
        <mxCell id="qfSn08KO6wEl3H6FHj9G-74" value="Port" style="text;html=1;align=left;verticalAlign=middle;resizable=0;points=[];autosize=1;strokeColor=none;fillColor=none;" vertex="1" parent="qfSn08KO6wEl3H6FHj9G-1">
          <mxGeometry x="310" y="95" width="50" height="30" as="geometry" />
        </mxCell>
        <mxCell id="qfSn08KO6wEl3H6FHj9G-75" value="Instance" style="text;html=1;align=left;verticalAlign=middle;resizable=0;points=[];autosize=1;strokeColor=none;fillColor=none;" vertex="1" parent="qfSn08KO6wEl3H6FHj9G-1">
          <mxGeometry x="310" y="125" width="70" height="30" as="geometry" />
        </mxCell>
        <mxCell id="qfSn08KO6wEl3H6FHj9G-76" value="server.fg.dfc.ac.za" style="text;html=1;align=left;verticalAlign=middle;resizable=0;points=[];autosize=1;strokeColor=none;fillColor=none;" vertex="1" parent="qfSn08KO6wEl3H6FHj9G-1">
          <mxGeometry x="410" y="70" width="120" height="30" as="geometry" />
        </mxCell>
        <mxCell id="qfSn08KO6wEl3H6FHj9G-77" value="1891" style="text;html=1;align=left;verticalAlign=middle;resizable=0;points=[];autosize=1;strokeColor=none;fillColor=none;" vertex="1" parent="qfSn08KO6wEl3H6FHj9G-1">
          <mxGeometry x="410" y="95" width="50" height="30" as="geometry" />
        </mxCell>
        <mxCell id="qfSn08KO6wEl3H6FHj9G-78" value="DS01" style="text;html=1;align=left;verticalAlign=middle;resizable=0;points=[];autosize=1;strokeColor=none;fillColor=none;" vertex="1" parent="qfSn08KO6wEl3H6FHj9G-1">
          <mxGeometry x="410" y="125" width="50" height="30" as="geometry" />
        </mxCell>
        <mxCell id="qfSn08KO6wEl3H6FHj9G-71" value="&lt;b&gt;&lt;font color=&quot;#5db182&quot;&gt;Connected&lt;/font&gt;&lt;/b&gt;" style="text;html=1;align=center;verticalAlign=middle;resizable=0;points=[];autosize=1;strokeColor=none;fillColor=none;" vertex="1" parent="qfSn08KO6wEl3H6FHj9G-1">
          <mxGeometry x="190" y="70" width="90" height="30" as="geometry" />
        </mxCell>
        <mxCell id="qfSn08KO6wEl3H6FHj9G-69" value="" style="shape=ellipse;fillColor=#36B37E;strokeColor=#ffffff;strokeWidth=2;sketch=0;" vertex="1" parent="qfSn08KO6wEl3H6FHj9G-1">
          <mxGeometry x="180" y="80" width="10" height="10" as="geometry">
            <mxPoint x="28" y="-21" as="offset" />
          </mxGeometry>
        </mxCell>
        <mxCell id="qfSn08KO6wEl3H6FHj9G-107" value="" style="html=1;rounded=1;fillColor=#ffffff;strokeColor=#DFE1E5;fontSize=20;align=left;fontColor=#000000;shadow=1;arcSize=1;whiteSpace=wrap;spacing=20;verticalAlign=top;fontStyle=1;sketch=1;hachureGap=4;pointerEvents=0;fontFamily=Architects Daughter;fontSource=https%3A%2F%2Ffonts.googleapis.com%2Fcss%3Ffamily%3DArchitects%2BDaughter;" vertex="1" parent="1">
          <mxGeometry x="80" y="680" width="610" height="470" as="geometry" />
        </mxCell>
        <mxCell id="qfSn08KO6wEl3H6FHj9G-108" value="&lt;font style=&quot;font-size: 17px&quot;&gt;Settings&lt;/font&gt;&lt;div&gt;&lt;br&gt;&lt;/div&gt;&lt;div&gt;&lt;font style=&quot;&quot; color=&quot;#295dd6&quot;&gt;Connection&lt;/font&gt;&lt;/div&gt;&lt;br&gt;&lt;div&gt;&lt;/div&gt;&lt;div&gt;About&lt;/div&gt;&lt;br&gt;&lt;div&gt;&lt;font color=&quot;#0057d8&quot;&gt;&lt;/font&gt;&lt;/div&gt;&lt;div&gt;&lt;br&gt;&lt;/div&gt;" style="html=1;fillColor=none;strokeColor=none;fontSize=12;align=left;fontStyle=1;strokeWidth=2;fontColor=000000;verticalAlign=top;sketch=1;hachureGap=4;pointerEvents=0;fontFamily=Helvetica;" vertex="1" parent="qfSn08KO6wEl3H6FHj9G-107">
          <mxGeometry width="110" height="360" relative="1" as="geometry">
            <mxPoint x="20" y="20" as="offset" />
          </mxGeometry>
        </mxCell>
        <mxCell id="qfSn08KO6wEl3H6FHj9G-109" value="" style="shape=line;direction=south;strokeColor=#E0E1E6;strokeWidth=1;sketch=1;hachureGap=4;pointerEvents=0;fontFamily=Architects Daughter;fontSource=https%3A%2F%2Ffonts.googleapis.com%2Fcss%3Ffamily%3DArchitects%2BDaughter;fontSize=20;" vertex="1" parent="qfSn08KO6wEl3H6FHj9G-107">
          <mxGeometry width="10" height="330" relative="1" as="geometry">
            <mxPoint x="130" y="60" as="offset" />
          </mxGeometry>
        </mxCell>
        <mxCell id="qfSn08KO6wEl3H6FHj9G-110" value="Status" style="html=1;fillColor=none;strokeColor=none;fontSize=12;align=left;fontStyle=1;fontColor=000000;sketch=1;hachureGap=4;pointerEvents=0;fontFamily=Helvetica;" vertex="1" parent="qfSn08KO6wEl3H6FHj9G-107">
          <mxGeometry width="300" height="20" relative="1" as="geometry">
            <mxPoint x="158" y="40" as="offset" />
          </mxGeometry>
        </mxCell>
        <mxCell id="qfSn08KO6wEl3H6FHj9G-111" value="" style="html=1;rounded=1;fillColor=#ffffff;strokeColor=#DFE1E5;fontSize=20;align=left;fontColor=#000000;shadow=1;arcSize=1;whiteSpace=wrap;spacing=20;verticalAlign=top;fontStyle=1;sketch=1;hachureGap=4;pointerEvents=0;fontFamily=Helvetica;" vertex="1" parent="qfSn08KO6wEl3H6FHj9G-107">
          <mxGeometry x="158.44155844155844" y="210.00285714285712" width="406.00649350649354" height="209.82142857142858" as="geometry" />
        </mxCell>
        <mxCell id="qfSn08KO6wEl3H6FHj9G-112" value="&lt;b&gt;Create Connection&lt;/b&gt;" style="text;html=1;align=left;verticalAlign=middle;resizable=0;points=[];autosize=1;strokeColor=none;fillColor=none;" vertex="1" parent="qfSn08KO6wEl3H6FHj9G-111">
          <mxGeometry x="9.902597402597404" y="5.117595818815331" width="130" height="30" as="geometry" />
        </mxCell>
        <mxCell id="qfSn08KO6wEl3H6FHj9G-122" value="Connect" style="dashed=0;html=1;rounded=1;fillColor=#0057D8;strokeColor=none;fontSize=12;align=center;fontStyle=0;strokeWidth=2;fontColor=#ffffff;sketch=0;hachureGap=4;pointerEvents=0;fontFamily=Helvetica;" vertex="1" parent="qfSn08KO6wEl3H6FHj9G-111">
          <mxGeometry x="1" y="1" width="89" height="24" relative="1" as="geometry">
            <mxPoint x="-114" y="-44" as="offset" />
          </mxGeometry>
        </mxCell>
        <mxCell id="qfSn08KO6wEl3H6FHj9G-138" value="" style="group" vertex="1" connectable="0" parent="qfSn08KO6wEl3H6FHj9G-111">
          <mxGeometry x="9.89844155844159" y="40.087142857142794" width="240" height="34.82000000000005" as="geometry" />
        </mxCell>
        <mxCell id="qfSn08KO6wEl3H6FHj9G-65" value="URL:Port:Instance" style="fillColor=none;strokeColor=none;html=1;fontSize=11;fontStyle=0;align=left;fontColor=#596780;fontStyle=1;fontSize=11" vertex="1" parent="qfSn08KO6wEl3H6FHj9G-138">
          <mxGeometry width="240" height="20" as="geometry" />
        </mxCell>
        <mxCell id="qfSn08KO6wEl3H6FHj9G-66" value="server.fg.dfc.ac.za:1891:DS01" style="rounded=1;arcSize=9;align=left;spacingLeft=5;strokeColor=#4C9AFF;html=1;strokeWidth=2;fontSize=12" vertex="1" parent="qfSn08KO6wEl3H6FHj9G-138">
          <mxGeometry y="20" width="230" height="14.82" as="geometry" />
        </mxCell>
        <mxCell id="qfSn08KO6wEl3H6FHj9G-139" value="" style="group" vertex="1" connectable="0" parent="qfSn08KO6wEl3H6FHj9G-111">
          <mxGeometry x="9.89844155844159" y="84.90714285714284" width="240" height="34.82000000000005" as="geometry" />
        </mxCell>
        <mxCell id="qfSn08KO6wEl3H6FHj9G-140" value="Username" style="fillColor=none;strokeColor=none;html=1;fontSize=11;fontStyle=0;align=left;fontColor=#596780;fontStyle=1;fontSize=11" vertex="1" parent="qfSn08KO6wEl3H6FHj9G-139">
          <mxGeometry width="240" height="20" as="geometry" />
        </mxCell>
        <mxCell id="qfSn08KO6wEl3H6FHj9G-141" value="SamKim" style="rounded=1;arcSize=9;align=left;spacingLeft=5;strokeColor=#4C9AFF;html=1;strokeWidth=2;fontSize=12" vertex="1" parent="qfSn08KO6wEl3H6FHj9G-139">
          <mxGeometry y="20" width="230" height="14.82" as="geometry" />
        </mxCell>
        <mxCell id="qfSn08KO6wEl3H6FHj9G-142" value="" style="group" vertex="1" connectable="0" parent="qfSn08KO6wEl3H6FHj9G-111">
          <mxGeometry x="9.89844155844159" y="134.90714285714284" width="240" height="34.82000000000005" as="geometry" />
        </mxCell>
        <mxCell id="qfSn08KO6wEl3H6FHj9G-143" value="Password" style="fillColor=none;strokeColor=none;html=1;fontSize=11;fontStyle=0;align=left;fontColor=#596780;fontStyle=1;fontSize=11" vertex="1" parent="qfSn08KO6wEl3H6FHj9G-142">
          <mxGeometry width="240" height="20" as="geometry" />
        </mxCell>
        <mxCell id="qfSn08KO6wEl3H6FHj9G-144" value="*************" style="rounded=1;arcSize=9;align=left;spacingLeft=5;strokeColor=#4C9AFF;html=1;strokeWidth=2;fontSize=12" vertex="1" parent="qfSn08KO6wEl3H6FHj9G-142">
          <mxGeometry y="20" width="230" height="14.82" as="geometry" />
        </mxCell>
        <mxCell id="qfSn08KO6wEl3H6FHj9G-125" value="" style="dashed=0;html=1;rounded=1;fillColor=#DFE1E6;strokeColor=#DFE1E6;fontSize=12;align=center;fontStyle=1;strokeWidth=2;fontColor=#42526E" vertex="1" parent="qfSn08KO6wEl3H6FHj9G-107">
          <mxGeometry x="160" y="60" width="404.45" height="100" as="geometry" />
        </mxCell>
        <mxCell id="qfSn08KO6wEl3H6FHj9G-126" value="Server" style="text;html=1;align=left;verticalAlign=middle;resizable=0;points=[];autosize=1;strokeColor=none;fillColor=none;" vertex="1" parent="qfSn08KO6wEl3H6FHj9G-107">
          <mxGeometry x="310" y="70" width="60" height="30" as="geometry" />
        </mxCell>
        <mxCell id="qfSn08KO6wEl3H6FHj9G-127" value="Port" style="text;html=1;align=left;verticalAlign=middle;resizable=0;points=[];autosize=1;strokeColor=none;fillColor=none;" vertex="1" parent="qfSn08KO6wEl3H6FHj9G-107">
          <mxGeometry x="310" y="95" width="50" height="30" as="geometry" />
        </mxCell>
        <mxCell id="qfSn08KO6wEl3H6FHj9G-128" value="Instance" style="text;html=1;align=left;verticalAlign=middle;resizable=0;points=[];autosize=1;strokeColor=none;fillColor=none;" vertex="1" parent="qfSn08KO6wEl3H6FHj9G-107">
          <mxGeometry x="310" y="125" width="70" height="30" as="geometry" />
        </mxCell>
        <mxCell id="qfSn08KO6wEl3H6FHj9G-132" value="&lt;b&gt;&lt;font color=&quot;#ff3333&quot;&gt;Disconnected&lt;/font&gt;&lt;/b&gt;" style="text;html=1;align=left;verticalAlign=middle;resizable=0;points=[];autosize=1;strokeColor=none;fillColor=none;" vertex="1" parent="qfSn08KO6wEl3H6FHj9G-107">
          <mxGeometry x="200" y="70" width="100" height="30" as="geometry" />
        </mxCell>
        <mxCell id="qfSn08KO6wEl3H6FHj9G-133" value="" style="shape=ellipse;fillColor=#e51400;strokeColor=#B20000;strokeWidth=2;sketch=0;fontColor=#ffffff;" vertex="1" parent="qfSn08KO6wEl3H6FHj9G-107">
          <mxGeometry x="180" y="80" width="10" height="10" as="geometry">
            <mxPoint x="28" y="-21" as="offset" />
          </mxGeometry>
        </mxCell>
        <mxCell id="qfSn08KO6wEl3H6FHj9G-64" value="Disconnect" style="dashed=0;html=1;rounded=1;fillColor=#DFE1E6;strokeColor=#DFE1E6;fontSize=12;align=center;fontStyle=1;strokeWidth=2;fontColor=#42526E" vertex="1" parent="qfSn08KO6wEl3H6FHj9G-107">
          <mxGeometry x="260" y="180" width="170" height="20" as="geometry" />
        </mxCell>
        <mxCell id="qfSn08KO6wEl3H6FHj9G-145" value="Settings | Connection [Connected]" style="dashed=0;html=1;rounded=1;fillColor=#FFAB00;strokeColor=#FFAB00;fontSize=12;align=center;fontStyle=1;strokeWidth=2;fontColor=#42526E" vertex="1" parent="1">
          <mxGeometry x="80" y="90" width="200" height="20" as="geometry" />
        </mxCell>
        <mxCell id="qfSn08KO6wEl3H6FHj9G-146" value="Settings | Connection [Disonnected]" style="dashed=0;html=1;rounded=1;fillColor=#FFAB00;strokeColor=#FFAB00;fontSize=12;align=center;fontStyle=1;strokeWidth=2;fontColor=#42526E" vertex="1" parent="1">
          <mxGeometry x="80" y="650" width="210" height="20" as="geometry" />
        </mxCell>
      </root>
    </mxGraphModel>
  </diagram>
</mxfile>
